<?xml version="1.0" encoding="UTF-8" standalone="no"?>
<svg
   xmlns:dc="http://purl.org/dc/elements/1.1/"
   xmlns:cc="http://creativecommons.org/ns#"
   xmlns:rdf="http://www.w3.org/1999/02/22-rdf-syntax-ns#"
   xmlns:svg="http://www.w3.org/2000/svg"
   xmlns="http://www.w3.org/2000/svg"
   viewBox="0 0 2592 2988"
   id="svg2"
   height="2988"
   width="2592"
   version="1.1">
  <metadata
     id="metadata34">
    <rdf:RDF>
      <cc:Work
         rdf:about="">
        <dc:format>image/svg+xml</dc:format>
        <dc:type
           rdf:resource="http://purl.org/dc/dcmitype/StillImage" />
      </cc:Work>
    </rdf:RDF>
  </metadata>
  <defs
     id="defs32" />
  <g
     id="g4">
    <g
       id="g6">
      <path
         id="path8"
         style="fill:#44c8f5;fill-rule:evenodd"
         d="m 1295.9999,159.238 a 1259.9999,1260 0 0 1 1259.9999,1260 1259.9999,1260 0 1 1 -1259.9999,-1260 z" />
      <path
         id="path10"
         style="fill:#d4effc;fill-opacity:0;fill-rule:evenodd"
         d="M 1295.9999,207.7853 A 1074.8035,1074.8036 0 0 1 2370.8034,1282.5889 1074.8035,1074.8036 0 1 1 1295.9999,207.7853 Z" />
      <text
         id="text12"
         y="2107.9912"
         x="339.13901">
        <tspan
           style="font-size:168.5px;font-family:Arial;fill:#090205"
           id="tspan14"
           font-size="168.5000">LEADS FROM THE FRONT</tspan>
      </text>
      <path
         id="path16"
         style="fill:#2e3092;fill-rule:evenodd"
         d="m 430.0633,827.0083 122.7524,0 0,1053.9793 -122.7524,0 0,-1053.9793 z" />
      <path
         id="path18"
         style="fill:#2e3092;fill-rule:evenodd"
         d="m 555.293,1411.4674 265.5046,472.8772 173.2237,0 -350.2197,-588.043 -88.5086,115.1658 z" />
      <path
         id="path20"
         style="fill:#00a650;fill-rule:evenodd"
         d="m 552.8157,1148.931 238.082,-294.0919 -82.3066,-82.3065 277.0306,4.015 -2.0075,269.0023 -82.3065,-84.314 -348.492,453.4548 0,-265.7597 z" />
      <path
         id="path22"
         style="fill:#2e3092;fill-rule:evenodd"
         d="m 1141.9496,1302.7693 c 96.4665,-194.2825 353.2178,-154.447 349.5195,102.57 l 0,478.6534 -140.8484,0 2.1624,-410.762 c 9.2863,-206.7516 -196.7369,-200.7026 -201.1636,0 l -0.9149,408.9164 -138.5769,0 0,-686.0719 129.8219,0 0,106.6941 z" />
      <path
         id="path24"
         style="fill:#2e3092;fill-rule:evenodd"
         d="m 1614.204,1881.5014 0,-1050.9355 283.6232,0 c 288.2558,5.4437 267.088,401.1273 137.3927,494.3178 123.5355,59.0889 145.6076,293.1083 83.1828,437.9981 -46.1008,106.995 -94.7704,117.5199 -196.5961,117.7926 l -307.6026,0.827 z m 131.1731,-457.7742 174.2477,0 c 54.416,0 98.935,44.519 98.935,98.9332 l 0,81.937 c 0,54.4159 -44.519,98.935 -98.935,98.935 l -174.2477,0 0,-279.8052 z m 0,-416.9641 162.0848,0 c 48.9546,0 89.0099,40.0536 89.0099,89.01 l 0,67.7595 c 0,48.9564 -40.0553,89.01 -89.0099,89.01 l -162.0848,0 0,-245.7795 z" />
      <path
         id="path26"
         style="fill:#d1d3d4;fill-rule:evenodd"
         d="m 1295.9999,2828.7619 a 1259.9999,74.7621 0 0 0 1259.9999,-74.7621 1259.9999,74.7621 0 1 0 -1259.9999,74.7621 z" />
    </g>
    <path
       id="path28"
       style="fill:none;stroke:#231f20;stroke-width:0.5;stroke-linecap:butt;stroke-linejoin:miter;stroke-dasharray:none"
       d="m -3.1305,0 0,2988 2598.261,0 0,-2988 -2598.261,0 z" />
  </g>
</svg>
